<?xml version="1.0" encoding="iso-8859-1"?>
<!-- Generator: Adobe Illustrator 19.0.0, SVG Export Plug-In . SVG Version: 6.00 Build 0)  -->
<svg version="1.1" id="Layer_1" xmlns="http://www.w3.org/2000/svg" xmlns:xlink="http://www.w3.org/1999/xlink" x="0px" y="0px"
	 viewBox="0 0 511.999 511.999" style="enable-background:new 0 0 511.999 511.999;" xml:space="preserve">
<g>
	<path style="fill:#F2F2F2;" d="M291.135,429.496c0.004,0.001,0.008,0.002,0.012,0.002c-1.013,0.2-2.014,0.424-3.027,0.612
		c-40.06,7.397-79.472,0.671-113.089-16.643c14.087-7.256,29.259-12.674,45.219-15.949c11.531-2.368,23.475-3.604,35.713-3.604
		c29.188,0,56.715,7.056,80.991,19.576C322.82,420.758,307.45,426.189,291.135,429.496z"/>
	<path style="fill:#F2F2F2;" d="M337.956,99.044c-24.524,12.815-52.404,20.083-81.992,20.083c-12.639,0-24.971-1.319-36.856-3.852
		c-15.949-3.369-31.096-8.893-45.148-16.243V99.02c15.289-7.986,32.015-13.852,49.86-17.15c3.392-0.624,6.785-1.154,10.177-1.578
		c2.026-0.259,4.052-0.483,6.078-0.66c2.697-0.247,5.383-0.436,8.069-0.554c3.451-0.165,6.879-0.212,10.283-0.165
		c2.25,0.024,4.488,0.094,6.714,0.212c2.238,0.106,4.464,0.259,6.679,0.471c1.472,0.13,2.945,0.283,4.417,0.448
		c0.73,0.082,1.461,0.177,2.203,0.271c2.203,0.271,4.382,0.589,6.561,0.966c2.179,0.353,4.335,0.754,6.49,1.201
		C307.802,85.816,323.432,91.435,337.956,99.044z"/>
</g>
<path style="fill:#2BA5F7;" d="M431.291,231.273c10.789,76.032-28.74,148.519-94.325,182.219h-0.012
	c-24.276-12.521-51.803-19.576-80.991-19.576c-29.164,0-56.668,7.044-80.932,19.553c-13.298-6.832-25.69-15.336-36.856-25.277
	l0.012-0.012c44.595-55.62,12.615-77.858,1.708-99.649c-10.895-21.791,24.524-40.861,32.698-81.722
	c8.163-40.861-53.311-63.37-53.311-63.37c14.877-18.092,33.381-33.311,54.677-44.418v0.012
	c24.524,12.827,52.416,20.095,82.004,20.095s57.469-7.268,81.992-20.083c20.472,10.707,38.764,25.36,53.7,43.158l-0.012,0.012
	c-13.899-3.475-29.459-2.509-44.724,4.664c-27.009,12.709-21.65,32.38-9.211,56.02s3.852,52.534-19.223,65.985
	c-7.586,4.417-14.146,10.707-17.868,19.647c-0.283,0.671-0.554,1.355-0.801,2.026c-15.348,41.191,39.341,72.558,67.658,38.941
	c8.328-9.882,16.113-22.333,20.189-37.115c4.217-15.348,12.603-29.294,24.889-39.412
	C419.206,247.493,426.12,240.296,431.291,231.273z"/>
<path style="fill:#2197D8;" d="M245.7,413.468c-13.298-6.832-25.69-15.336-36.856-25.277
	c-28.387-25.254-48.894-59.789-56.326-100.049c-9.871-53.464,5.395-105.762,37.433-144.703
	c14.877-18.092,33.381-33.311,54.677-44.418c14.426-7.535,30.143-13.153,46.86-16.537c-21.681-4.448-44.563-4.882-67.669-0.612
	c-17.845,3.298-34.571,9.164-49.86,17.15c-21.296,11.107-39.801,26.326-54.677,44.418c-32.038,38.941-47.304,91.239-37.433,144.703
	c7.432,40.26,27.939,74.796,56.326,100.049c11.166,9.941,23.558,18.446,36.856,25.277c33.617,17.315,73.029,24.041,113.089,16.644
	c1.018-0.188,2.019-0.413,3.03-0.618C275.221,426.227,259.94,420.802,245.7,413.468z"/>
<g>
	<path style="fill:#CCCCCC;" d="M219.107,115.275c-15.949-3.369-31.096-8.893-45.148-16.243V99.02
		c15.289-7.986,32.015-13.852,49.86-17.15c3.392-0.624,6.785-1.154,10.177-1.578c2.026-0.247,4.052-0.471,6.078-0.66
		c2.697-0.247,5.383-0.424,8.069-0.554c3.439-0.153,6.867-0.212,10.283-0.165c2.25,0.035,4.488,0.106,6.714,0.212
		c2.238,0.118,4.464,0.271,6.679,0.471c1.472,0.13,2.945,0.283,4.417,0.448c0.73,0.082,1.461,0.177,2.203,0.271
		c2.191,0.283,4.382,0.601,6.561,0.966c2.167,0.353,4.335,0.766,6.49,1.201c-16.714,3.381-32.439,8.999-46.856,16.537
		C235.597,103.732,227.07,109.174,219.107,115.275z"/>
	<path style="fill:#CCCCCC;" d="M245.704,413.468c14.241,7.338,29.518,12.756,45.443,16.031c-1.013,0.2-2.014,0.424-3.027,0.612
		c-40.06,7.397-79.472,0.671-113.089-16.643c14.087-7.256,29.259-12.674,45.219-15.949
		C228.259,403.55,236.775,408.886,245.704,413.468z"/>
</g>
<path style="fill:#9AD14B;" d="M149.577,254.112c-8.763,12.921-15.23,23.322-9.682,34.418c10.907,21.791,42.887,44.029-1.708,99.649
	l-0.012,0.012c-28.387-25.254-48.894-59.789-56.326-100.049c-9.871-53.464,5.395-105.762,37.433-144.703
	c0,0,33.829,12.38,47.952,35.466c4.935,8.033,7.468,17.35,5.359,27.904C168.576,226.856,158.01,241.662,149.577,254.112z"/>
<path style="fill:#90BC42;" d="M139.894,288.53c10.907,21.791,42.887,44.029-1.708,99.649l-0.012,0.012
	c-28.387-25.254-48.894-59.789-56.326-100.049c-9.871-53.464,5.395-105.762,37.433-144.703c0,0,33.829,12.38,47.952,35.466
	c-11.166,23.039-17.421,48.635-17.656,75.208C140.813,267.034,134.347,277.434,139.894,288.53z"/>
<path style="fill:#9AD14B;" d="M430.09,223.841c0.459,2.485,0.86,4.959,1.201,7.432c-5.171,9.023-12.085,16.219-18.74,21.697
	c-12.285,10.118-20.672,24.064-24.889,39.412c-4.075,14.782-11.861,27.233-20.189,37.115c-28.316,33.617-83.005,2.25-67.658-38.941
	c0.247-0.671,0.518-1.355,0.801-2.026c3.722-8.94,10.283-15.23,17.869-19.647c23.075-13.451,31.661-42.345,19.223-65.985
	s-17.798-43.311,9.211-56.02c15.265-7.173,30.825-8.139,44.724-4.664l0.012-0.012C410.713,164.876,424.33,192.638,430.09,223.841z"
	/>
<path style="fill:#333333;" d="M222.218,73.182c-100.8,18.612-167.665,115.76-149.052,216.56
	c16.515,89.443,94.857,152.161,182.726,152.161c11.158,0,22.478-1.013,33.836-3.11c100.799-18.612,167.663-115.761,149.051-216.56
	C420.166,121.433,323.014,54.571,222.218,73.182z M90.54,286.535c-8.938-48.41,3.911-95.888,31.571-132.307
	c13.866,6.363,47.073,24.554,41.815,50.847c-3.458,17.292-12.448,30.517-20.38,42.184c-10.12,14.888-19.68,28.951-11.547,45.218
	c2.138,4.278,4.805,8.283,7.628,12.523c11.245,16.89,22.839,34.322-2.507,69.952C113.756,351.676,96.969,321.346,90.54,286.535z
	 M286.52,421.419c-31.188,5.759-61.987,2.47-89.695-7.992c18.793-7.089,38.61-10.677,59.143-10.677
	c20.571,0,40.419,3.601,59.238,10.71C306.05,416.899,296.468,419.582,286.52,421.419z M336.788,403.536
	c-25.007-12.08-52.842-18.455-80.82-18.455c-28.356,0-55.484,6.197-80.719,18.41c-8.781-4.816-17.122-10.401-24.915-16.685
	c14.148-19.44,20.591-36.947,19.615-53.316c-0.971-16.288-9.091-28.484-15.615-38.284c-2.511-3.772-4.883-7.335-6.533-10.633
	c-3.184-6.368,0.51-12.899,10.356-27.383c8.435-12.408,18.932-27.851,23.092-48.652c7.172-35.862-28.113-58.687-47.296-68.257
	c11.617-12.283,25.116-22.884,40.165-31.28c25.301,12.407,53.49,18.954,81.849,18.954c28.326,0,56.483-6.531,81.762-18.91
	c11.34,6.322,21.926,13.941,31.538,22.685c-8.862,0.795-17.654,3.179-26.108,7.154c-12.164,5.723-19.634,13.155-22.838,22.715
	c-4.899,14.621,1.703,30.467,9.569,45.414c10.158,19.304,3.194,43.128-15.854,54.236c-10.193,5.945-17.453,13.977-21.581,23.884
	c-0.326,0.784-0.635,1.565-0.922,2.338c-9.683,25.996,3.585,47.906,21.03,58.087c7.457,4.352,16.382,7.007,25.572,7.007
	c12.574-0.001,25.64-4.974,36.09-17.379c10.661-12.653,18.046-26.268,21.953-40.466c3.916-14.235,11.52-26.315,21.989-34.935
	c2.117-1.743,4.126-3.542,6.034-5.389C424.821,316.79,390.461,374.086,336.788,403.536z M422.087,229.421
	c-3.845,5.988-8.93,11.605-15.151,16.727c-13.295,10.947-22.905,26.123-27.793,43.888c-3.224,11.72-9.424,23.082-18.429,33.769
	c-12.255,14.549-28.797,12.592-39.242,6.497c-10.244-5.98-19.896-19.169-13.378-36.665c0.213-0.571,0.441-1.145,0.676-1.714
	c2.647-6.352,7.283-11.392,14.17-15.409c27.242-15.886,37.165-50.028,22.589-77.726c-5.75-10.926-11.25-23.223-8.452-31.573
	c1.59-4.745,6.041-8.781,13.606-12.341c11.628-5.468,24.024-7.073,36.027-4.713c17.156,21.121,29.418,46.691,34.697,75.281
	C421.649,226.769,421.875,228.096,422.087,229.421z M316.452,99.06c-19.198,7.371-39.789,11.228-60.484,11.228
	c-20.721,0-41.337-3.867-60.555-11.256c9.559-3.683,19.582-6.549,30.014-8.475C257.115,84.704,288.402,88.197,316.452,99.06z"/>
<path style="fill:#999999;" d="M500.092,179.202c-2.695-8.582-5.889-17.144-9.495-25.449c-1.944-4.476-7.147-6.529-11.621-4.587
	c-4.476,1.942-6.529,7.146-4.587,11.621c3.359,7.739,6.336,15.715,8.845,23.706c22.119,70.482,10.815,145.774-31.014,206.565
	c-46.151,67.046-120.765,103.085-196.598,103.082c-46.551-0.001-93.564-13.582-134.725-41.91
	c-52.417-36.081-87.647-90.413-99.2-152.991c-11.554-62.577,1.954-125.907,38.035-178.324
	C124.336,27.05,246.882-8.019,351.116,37.524c4.47,1.953,9.679-0.087,11.633-4.558c1.953-4.47-0.087-9.679-4.558-11.632
	C246.209-27.593,114.57,10.076,45.18,110.899C6.424,167.204-8.085,235.232,4.324,302.449
	c12.409,67.218,50.252,125.58,106.558,164.337c43.176,29.714,93.241,45.174,144.551,45.173c15.606,0,31.329-1.43,47.005-4.325
	c67.218-12.41,125.581-50.253,164.339-106.56C511.706,335.775,523.85,254.906,500.092,179.202z"/>
<path style="fill:#333333;" d="M411.451,86.232l-3.363,25.037c-0.649,4.835,2.744,9.282,7.581,9.932
	c0.399,0.053,0.795,0.08,1.187,0.08c4.356,0,8.149-3.223,8.745-7.66l1.568-11.673l16.304,16.305
	c1.657,1.656,3.904,2.588,6.247,2.588h11.85c4.88,0,8.834-3.955,8.834-8.834s-3.954-8.834-8.834-8.834h-8.19l-13.718-13.718
	l11.673-1.568c4.835-0.65,8.229-5.096,7.581-9.932c-0.648-4.836-5.111-8.228-9.932-7.58l-25.037,3.363l-17.949-17.95
	c-3.451-3.449-9.044-3.45-12.494,0c-3.45,3.45-3.45,9.043,0,12.493L411.451,86.232z"/>
<g>
	<path style="fill:#FFFFFF;" d="M402.598,282.212c-0.346,0-0.696-0.02-1.049-0.061c-4.845-0.572-8.309-4.965-7.735-9.811
		c1.399-11.839,1.257-23.846-0.423-35.689c-0.277-2.007-0.584-3.913-0.943-5.86c-4.359-23.605-14.765-45.721-30.095-63.959
		c-11.741-13.991-25.917-25.383-42.136-33.867c-12.448-6.515-25.635-11.08-39.196-13.574c-4.798-0.882-7.973-5.488-7.091-10.285
		c0.882-4.799,5.483-7.972,10.285-7.092c15.305,2.814,30.174,7.96,44.192,15.296c18.275,9.557,34.248,22.396,47.477,38.159
		c17.289,20.569,29.027,45.509,33.938,72.115c0.409,2.212,0.759,4.377,1.067,6.617c1.889,13.32,2.049,26.86,0.471,40.213
		C410.828,278.907,407.012,282.212,402.598,282.212z"/>
	<circle style="fill:#FFFFFF;" cx="256.366" cy="108.319" r="8.834"/>
</g>
<g>
</g>
<g>
</g>
<g>
</g>
<g>
</g>
<g>
</g>
<g>
</g>
<g>
</g>
<g>
</g>
<g>
</g>
<g>
</g>
<g>
</g>
<g>
</g>
<g>
</g>
<g>
</g>
<g>
</g>
</svg>
